<?xml version="1.0" encoding="UTF-8" standalone="no"?>
<svg
   xmlns:dc="http://purl.org/dc/elements/1.1/"
   xmlns:cc="http://creativecommons.org/ns#"
   xmlns:rdf="http://www.w3.org/1999/02/22-rdf-syntax-ns#"
   xmlns:svg="http://www.w3.org/2000/svg"
   xmlns="http://www.w3.org/2000/svg"
   xmlns:sodipodi="http://sodipodi.sourceforge.net/DTD/sodipodi-0.dtd"
   xmlns:inkscape="http://www.inkscape.org/namespaces/inkscape"
   sodipodi:docname="input.svg"
   inkscape:version="1.0 (4035a4fb49, 2020-05-01)"
   id="svg8"
   version="1.1"
   viewBox="0 0 210 297"
   height="297mm"
   width="210mm">
  <style
     id="style833"></style>
  <defs
     id="defs2" />
  <sodipodi:namedview
     inkscape:window-maximized="1"
     inkscape:window-y="35"
     inkscape:window-x="0"
     inkscape:window-height="1045"
     inkscape:window-width="1920"
     showgrid="false"
     inkscape:document-rotation="0"
     inkscape:current-layer="layer1"
     inkscape:document-units="mm"
     inkscape:cy="540.07432"
     inkscape:cx="406.7006"
     inkscape:zoom="0.70175696"
     inkscape:pageshadow="2"
     inkscape:pageopacity="0.0"
     borderopacity="1.0"
     bordercolor="#666666"
     pagecolor="#ffffff"
     id="base" />
  <metadata
     id="metadata5">
    <rdf:RDF>
      <cc:Work
         rdf:about="">
        <dc:format>image/svg+xml</dc:format>
        <dc:type
           rdf:resource="http://purl.org/dc/dcmitype/StillImage" />
        <dc:title></dc:title>
      </cc:Work>
    </rdf:RDF>
  </metadata>
  <g
     id="layer1"
     inkscape:groupmode="layer"
     inkscape:label="Ebene 1">
    <path
       d="m 20.788166,214.65412 c 10.78451,-1.52638 21.741951,0.96926 32.492206,-1.00041 11.306741,-0.19209 22.5812,-1.40606 33.905966,-0.92953 11.187156,0.28669 22.398442,-0.82009 33.560582,-0.18349 7.85757,0.54335 15.74099,1.61488 23.60296,1.42566 7.79642,-0.85085 16.30574,-8.14749 14.01245,-16.59016 -2.08405,-7.45704 1.47565,-15.22736 -0.2509,-22.63624 -2.95076,-6.8568 -11.23896,-8.08432 -15.97911,-13.20973 -4.70123,-4.77578 -14.48008,1.80083 -15.5649,1.82815 1.525,-7.53859 -1.09965,-15.33665 -6.58199,-20.65106 -3.50602,-4.74916 -7.09245,-9.61719 -12.44011,-12.41075 -4.83696,-3.16325 -10.175583,-6.25357 -16.124153,-6.31018 -7.401886,2.12865 -13.734101,8.99949 -12.923301,17.05706 -0.371228,8.679 -5.17215,-4.3418 -9.658646,-3.94226 -8.651584,-3.39556 -18.550385,-3.68929 -27.514059,-1.53319 -8.528106,3.50357 -17.411831,10.69588 -17.253655,20.74997 3.856667,7.80813 -6.803441,10.43476 -10.171232,15.56657 -8.1343895,10.59482 -6.7188029,25.62175 -0.963616,36.9464 1.722035,2.85261 4.47191,5.28521 7.851508,5.82319 z"
       style="fill:none;stroke:#000000;stroke-width:0.264583px;stroke-linecap:butt;stroke-linejoin:miter;stroke-opacity:1"
       id="path835" />
  </g>
</svg>
